<?xml version="1.0" encoding="utf-8"?>
<!-- Generator: Adobe Illustrator 21.0.0, SVG Export Plug-In . SVG Version: 6.00 Build 0)  -->
<svg version="1.1" id="Capa_1" xmlns="http://www.w3.org/2000/svg" xmlns:xlink="http://www.w3.org/1999/xlink" x="0px" y="0px"
	 viewBox="0 0 450 450" style="enable-background:new 0 0 450 450;" xml:space="preserve">
<style type="text/css">
	.st0{fill:#498D91;}
	.st1{fill:#448C91;}
</style>
<path class="st0" d="M15,246.2c-0.2-2.6,0.6-5.3,2.4-7.9c2.9-4.1,7.6-7,14.1-8.8c3.2-0.9,7.1-1.5,11.6-1.9c4.5-0.4,9.7-0.6,15.5-0.5
	c14.3,0.2,28.6,1.3,42.9,3.3c6.5,1.2,10.1,1.7,10.8,1.6c0.1,0,0.1,0,0.1,0c0,0,0.3-1,0.8-2.9c0.5-1.9,1.1-4.2,1.8-7
	c1.7-6,2.4-10.4,2.2-13.1c0-0.1-0.1-0.9-0.3-2.3c-0.2-1.4-1.6-3.2-4.2-5.5c-1-0.8-1.5-1.4-1.6-1.9c0-0.4,0.2-0.9,0.8-1.5
	c0.5-0.7,0.9-1.1,1.3-1.1c0.4,0,1.3,0.5,2.6,1.5c1.9,1.4,3.5,3.3,4.8,5.7c1.3,2.4,2.1,4.9,2.3,7.4c0.2,2.1-0.2,6.4-1.2,13
	c-0.7,4.6-1,7.6-0.8,8.9c0,0.2,0,0.3,0.1,0.3c1.4,0.6,3.2,1.2,5.4,1.6c1.3,0.4,2.9,0.9,4.7,1.5c4.7,1.6,7.6,2.9,8.7,3.8
	c0.6,0.6,1,1.5,1.1,2.8c0.1,1.1,0,1.9-0.3,2.3c-0.3,0.4-0.9,0.7-1.9,0.9c-1.9,0.2-5-0.1-9.3-0.8c-1.9-0.4-3.6-0.7-5.2-0.9
	c-1.6-0.2-2.5-0.3-2.9-0.2c-0.6,0.1-0.9,1.1-0.7,3.3c0.1,1.2,0.3,2.9,0.7,5.2c1.8,10.9,4.7,20,8.9,27.2c1.7,3,2.5,5.2,2.7,6.7
	c0.1,1-0.2,1.5-0.8,1.6c-0.7,0.1-2.1-0.8-3.9-2.6c-3.6-3.6-6.7-8.5-9.5-14.7c-2.7-6.2-4.6-12.9-5.8-20.1l-1.3-8.4L99,241.4
	c-15.7-1.5-29.9-2.3-42.7-2.4c-6.5,0-12,0.2-16.5,0.6c-4.4,0.4-7.8,1-10.3,1.8c-4.7,1.5-6.9,3.4-6.8,5.6c0,0.4,0.5,1.5,1.4,3.1
	c0.9,1.6,6,4.7,15.2,9.2c5,2.6,7.6,4.5,7.7,5.7c0,0.5-0.4,0.8-1.4,0.9c-0.6,0.1-2.4-0.5-5.5-1.6c-7.6-2.8-13.4-5.4-17.5-7.6
	C17.9,253.9,15.3,250.4,15,246.2"/>
<path class="st0" d="M34.1,315.5c-0.2-0.5-0.3-1.3-0.4-2.3c-0.1-1,0-2,0.2-3c0.2-1,0.7-2.1,1.4-3.4c0.7-1.3,1.6-2.5,2.5-3.6
	c1.2-1.4,2.6-2.6,4.1-3.4c1.5-0.9,4.1-2.1,7.8-3.5l8.5-3.4l-3.2-0.7c-6.8-1.1-11.9-2.1-15.5-2.9c-3.6-0.8-6.1-1.7-7.5-2.5
	c-1.4-0.9-2.4-2-2.9-3.3c-0.7-1.8-0.6-3.6,0.5-5.4c1.8-3,5.2-5.5,10-7.4c0.9-0.4,2.3-0.8,4.2-1.5c1.9-0.6,4.4-1,7.4-1
	c3-0.1,5.8,0.4,8.4,1.3c4,1.7,6.6,3.9,7.8,6.8c0.1,0.3,0.5,1.5,1,3.4c0.5,1.9-0.8,4.4-3.9,7.3l-2.8,2.1l7.2,1.5
	c2.8,0.6,4.7,1.1,5.8,1.7c0.9,0.4,1.5,1,1.7,1.5c0.2,0.5,0.2,1,0.2,1.4c-0.1,0.6-1.2,1.3-3.2,2.3c-1.7,0.8-6,2.6-12.8,5.3
	c-9.4,3.8-14.7,6.1-16.2,7c-1.1,0.6-1.8,1.3-2.2,1.9c-0.9,1.2-1.2,2.2-1,2.9c0.2,0.5,0.6,1,1.3,1.7c1.6,1.7,4.2,3.3,7.8,4.7
	c3.7,1.4,7.6,2.3,11.7,2.8c4.9,0.6,7.6,1.5,8.1,2.6c0.2,0.5-0.2,0.9-1.1,1.2c-0.8,0.3-2.5,0.4-5.3,0.2c-2.8-0.1-5.7-0.4-8.8-0.9
	c-3.1-0.4-5.6-0.9-7.7-1.5c-3-0.9-5.7-2.3-8.2-4.1C36.5,319.3,34.9,317.4,34.1,315.5 M36,282.6c0,0,0.2,0.2,0.5,0.6
	c0.3,0.4,3.7,1.2,10.3,2.6c5.5,1.3,8.6,1.7,9.4,1.4c0.8-0.3,1.5-0.9,2.1-1.8c1.2-1.8,1.6-3.2,1.1-4.4c-0.5-1.2-2.8-1.8-7-1.9
	c-3.5-0.1-7,0.3-10.4,1c-2.1,0.4-3.7,0.9-4.7,1.3C36.3,281.8,35.9,282.2,36,282.6"/>
<path class="st0" d="M64.8,369.3c-1-1-1.8-2-2.4-3c-0.6-1-1.2-2.5-1.7-4.7c-1.3-5-0.7-10.8,1.6-17.3c0.6-1.6,1.4-3.1,2.3-4.5
	c1-1.3,2.7-3.2,5.2-5.5c2.6-2.4,4.5-4.1,5.8-5c1.3-0.9,2.9-1.6,4.7-2.1c5.4-1.5,10.1-1.5,13.9,0.1c1.6,0.7,3,1.6,4.1,2.8
	c1.5,1.5,2.4,3.5,2.9,5.8c0.2,1.4-0.1,3-0.8,4.7c-0.8,1.9-1.9,3.5-3.2,4.7c-1.1,1-2.1,1.6-3.1,1.6c-1,0-1.7-0.2-2.2-0.6
	c-0.8-0.8-0.7-2.5,0.4-4.9c0.9-2.5,0.8-4.2-0.2-5.3c-0.7-0.8-2-1.1-3.7-1.1c-4.8,0.2-9.2,2.3-13.3,6.1c-3.5,3.3-5.8,7.4-6.9,12.1
	c-1.3,5.8-0.1,10.7,3.6,14.6c2.4,2.5,5.9,4.6,10.4,6.4c9.6,3.3,18.8,4.3,27.4,2.9c4.6-0.8,7.2-0.8,8-0.1c0.2,0.2,0.2,0.5-0.1,0.8
	c-0.5,0.5-1.9,1.1-4.2,1.9c-5,1.5-10.7,2.1-17.1,1.8c-6.4-0.3-12.6-1.4-18.6-3.5c-2.4-0.9-4.4-1.8-5.9-2.8
	C69.7,374,67.4,372.1,64.8,369.3"/>
<path class="st0" d="M147.1,423.5c-0.5-0.2-1.1-0.7-1.9-1.4c-0.8-0.7-1.4-1.5-1.9-2.3c-0.5-0.8-1-2-1.3-3.4
	c-0.4-1.4-0.6-2.9-0.7-4.3c-0.1-1.9,0.1-3.7,0.6-5.3c0.5-1.7,1.6-4.3,3.2-8l3.8-8.3l-2.8,1.7c-5.7,3.8-10.1,6.7-13.3,8.6
	c-3.2,1.9-5.5,3-7.2,3.3c-1.6,0.3-3.1,0.2-4.4-0.4c-1.8-0.8-2.9-2.3-3.3-4.3c-0.8-3.5-0.1-7.6,2.1-12.3c0.4-0.9,1.1-2.2,2.1-4
	c1-1.8,2.5-3.7,4.7-5.9c2.1-2.1,4.5-3.7,7-4.8c4-1.6,7.5-1.7,10.3-0.4c0.3,0.2,1.4,0.7,3.1,1.8c1.7,1,2.4,3.7,2.2,8l-0.6,3.5
	l6.3-3.9c2.4-1.5,4.2-2.4,5.3-2.8c1-0.3,1.7-0.3,2.3-0.1c0.5,0.3,0.8,0.5,1.1,0.9c0.3,0.5,0.1,1.8-0.7,3.9c-0.7,1.8-2.6,6-5.6,12.7
	c-4.2,9.2-6.5,14.6-6.9,16.2c-0.3,1.2-0.4,2.2-0.3,2.9c0.2,1.5,0.6,2.4,1.3,2.7c0.5,0.2,1.2,0.3,2.1,0.3c2.3,0.2,5.3-0.5,8.9-2
	c3.6-1.5,7.1-3.5,10.4-6c4-2.9,6.5-4.2,7.6-3.7c0.4,0.2,0.5,0.8,0,1.7c-0.3,0.7-1.6,2-3.7,3.8c-2.1,1.8-4.4,3.6-6.9,5.4
	c-2.5,1.8-4.7,3.2-6.6,4.2c-2.8,1.4-5.7,2.3-8.8,2.7C151.5,424.6,149,424.3,147.1,423.5 M125.8,398.3c0,0,0.3,0.1,0.8,0.1
	c0.5,0.1,3.6-1.7,9.2-5.2c4.8-2.8,7.4-4.7,7.8-5.4c0.4-0.8,0.4-1.7,0.3-2.8c-0.3-2.1-1.1-3.4-2.2-4c-1.2-0.5-3.3,0.6-6.4,3.4
	c-2.6,2.4-4.8,5-6.9,7.9c-1.2,1.8-2.1,3.2-2.5,4.1C125.5,397.5,125.4,398.1,125.8,398.3"/>
<path class="st0" d="M225.2,442.6c-1.9-0.1-3.8-1.2-5.5-3.2c-0.7-0.8-1.4-1.9-2.1-3.3c-0.7-1.4-1.2-2.7-1.5-4.1
	c-0.6-3-0.8-7-0.5-11.9c0.1-1.5,0.3-4.4,0.8-8.7c0.4-4.4,1.5-9.5,3.4-15.5l0.1-0.4c0-0.1,0-0.2-0.2-0.2c-0.3,0-1.3,0.7-2.8,2.3
	c-2.3,2.3-5.1,6.3-8.3,11.8c-3.2,5.5-6,11.1-8.3,16.6c-1.9,4.5-3.5,7.5-4.7,9.1c-1,1.3-2.2,1.9-3.4,1.8c-2.9-0.2-5-3.2-6.1-9.1
	c-0.8-4.1-1-9.1-0.6-15.2c0.1-2,0.3-4.2,0.5-6.5c1.3-13.3,3.9-20.5,7.8-21.6c0.7-0.2,1.3-0.3,1.8-0.2c2,0.1,2.9,1.8,2.7,5
	c0,0.9-0.2,1.8-0.4,2.8c-1.8,11-2.8,19.4-3.1,25.2c-0.1,2.1-0.1,3.8-0.1,5.3l0.4,4.8l4.1-8.9c2.9-5.9,6-11.3,9.2-16.1
	c3.2-4.8,6.3-8.5,9.2-11.1c1.8-1.7,3.2-2.8,4.2-3.3c0.5-0.2,1-0.3,1.5-0.3c0.4,0,0.7,0.1,1.1,0.3c1.4,0.3,2.3,1,2.9,2.3
	c0.6,1.3,0.7,4.5,0.4,9.7c-0.2,3.1-0.5,7.2-0.9,12.3c-0.3,4.2-0.6,7.8-0.7,10.8c-0.1,1.8-0.2,3.9-0.2,6.3c-0.1,4.1,0.5,6.1,1.8,6.2
	c2.2,0.1,7.1-5.5,14.6-17c2.3-3.6,4.1-5.9,5.3-6.9c0.7-0.5,1.3-0.8,1.8-0.7c0.5,0,0.9,0.3,1.3,0.8c0.3,0.3,0.5,0.7,0.4,1.1
	c0,0.4-0.2,0.9-0.6,1.4c-0.4,0.5-1.3,1.8-2.7,4c-1.4,2.1-3,4.6-4.7,7.3c-5.4,8.5-9.9,13.8-13.5,15.9
	C228,442.3,226.5,442.7,225.2,442.6"/>
<path class="st0" d="M302.7,424.1c-0.5,0.2-1.3,0.3-2.3,0.3c-1,0-2-0.1-3-0.3c-1-0.2-2.1-0.8-3.3-1.6c-1.2-0.8-2.4-1.7-3.5-2.7
	c-1.4-1.3-2.4-2.8-3.2-4.3c-0.8-1.6-1.8-4.2-3.1-8l-2.9-8.6l-0.9,3.2c-1.5,6.7-2.8,11.8-3.8,15.3c-1,3.5-2,6-2.9,7.3
	c-0.9,1.4-2.1,2.3-3.5,2.8c-1.9,0.6-3.7,0.4-5.4-0.8c-2.9-2-5.2-5.5-6.9-10.4c-0.3-0.9-0.7-2.4-1.2-4.3c-0.5-2-0.7-4.4-0.7-7.5
	c0.1-3,0.7-5.8,1.8-8.3c1.9-3.9,4.3-6.4,7.2-7.4c0.4-0.1,1.5-0.4,3.4-0.8c1.9-0.4,4.3,1,7.1,4.3l2,2.9l1.9-7.2
	c0.7-2.7,1.4-4.6,2-5.7c0.5-0.9,1-1.4,1.6-1.6c0.5-0.1,1-0.2,1.4-0.1c0.6,0.2,1.3,1.3,2.1,3.4c0.7,1.8,2.3,6.1,4.6,13.1
	c3.3,9.5,5.3,15,6.1,16.5c0.6,1.1,1.2,1.9,1.8,2.3c1.2,1,2.1,1.3,2.8,1.1c0.5-0.2,1.1-0.6,1.7-1.2c1.8-1.5,3.5-4,5.1-7.6
	c1.6-3.6,2.7-7.4,3.4-11.5c0.9-4.9,1.9-7.5,3-7.9c0.5-0.2,0.9,0.2,1.2,1.2c0.3,0.8,0.3,2.5,0,5.3c-0.3,2.7-0.7,5.6-1.3,8.7
	c-0.6,3.1-1.2,5.6-1.9,7.6c-1,3-2.6,5.6-4.6,8C306.6,421.9,304.7,423.5,302.7,424.1 M269.9,420.5c0,0,0.3-0.2,0.6-0.5
	c0.4-0.3,1.4-3.7,3.1-10.1c1.6-5.4,2.2-8.5,1.9-9.3c-0.3-0.8-0.8-1.5-1.7-2.2c-1.7-1.3-3.1-1.8-4.3-1.4c-1.2,0.4-2,2.7-2.3,6.9
	c-0.2,3.5-0.1,7,0.4,10.4c0.3,2.1,0.7,3.7,1,4.7C269.2,420.1,269.5,420.6,269.9,420.5"/>
<path class="st0" d="M308.3,354.6c-0.7,0.5-1.5,0.7-2.5,0.6c-1.1-0.3-1.9-0.9-2.7-1.9c-0.1-0.2-0.4-0.6-0.8-1.3
	c-0.5-0.7-0.7-1.9-0.8-3.4c-0.1-1.5,0.3-2.6,1.3-3.3c0.6-0.5,1.7-0.4,3.3,0.1c1.5,0.5,2.7,1.2,3.4,2.2c0.8,1.1,1,2.2,0.9,3.4
	C310,352.6,309.3,353.8,308.3,354.6 M347.9,400.4c-0.9,0.6-2.5,1.3-4.8,1.9c-5,1.5-9.8,0.6-14.5-2.6c-1.4-0.8-2.8-2.2-4.4-4
	c-1.5-1.8-3.8-4.8-6.7-8.9c-4.9-6.9-7.9-12.1-9-15.7c-1.1-3.5-0.5-6.1,1.8-7.8c1.2-0.9,2.3-1.3,3.1-1.2c0.8,0.1,1.7,0.8,2.6,2
	c1.1,1.5,2.4,3.9,4,7.4c2.8,5.8,5.6,10.5,8.1,14.1c5.9,8.3,11.1,11,15.5,7.8c1.4-1,2.4-3.6,2.9-7.8c0.5-4.2,0.3-8.5-0.5-12.9
	c-0.8-4.7-0.7-7.3,0.2-8c0.8-0.6,1.6-0.4,2.3,0.7c1.1,1.6,2.1,5,3,10.4c1.6,9.9,1.2,17.1-1.2,21.6
	C349.6,398.8,348.7,399.8,347.9,400.4"/>
<path class="st0" d="M406.6,363.9c-0.9,1.2-2.5,2-4.7,2.2c-1.4,0.2-2.9-0.1-4.5-0.9c-1.1-0.5-2.5-1.4-4.2-2.7l-2.5-1.9
	c-2.9-2.7-8.3-10.1-16.3-22.2l-0.6-1c-1.3-2.3-2.4-3.8-3.1-4.3c-0.5-0.3-0.8-0.3-1.1,0c-0.7,0.9-1.4,4.1-2.3,9.7
	c-0.1,0.4-0.2,0.8-0.2,1.3c-1.3,7.8-2.8,13-4.6,15.4c-0.8,1.1-1.7,1.9-2.7,2.4c-2.1,1.2-4.1,1.7-5.9,1.4c-1.8-0.3-4-1.3-6.4-3.1
	c-2.4-1.8-4.3-3.8-5.8-6.2c-2.6-4.1-2.7-7.7-0.5-10.7c0.2-0.3,0.8-0.9,1.6-1.7c0.8-0.8,2-1.2,3.7-1.1c0.9,0.1,1.6,0.3,2.1,0.7
	c0.5,0.4,1.1,1,1.7,1.9c0.6,0.9,1.4,2.2,2.5,4c1.1,1.8,2,3.3,2.9,4.6c0.9,1.3,1.4,2,1.6,2.1c0.4,0.3,0.9,0,1.5-0.8
	c1.6-2.2,3.1-5.8,4.4-11c1.1-4.4,1.9-7.6,2.6-9.9c0.7-2.5,1.4-4.1,2-4.9c1.6-2.2,4.3-1.9,8,0.8c0.1,0,0.8,0.6,2.3,1.8
	c1.5,1.1,4.6,4.5,9.5,10l11.6,13.5l-0.6-3l-3.6-14c-1.3-5.7-2.4-11.3-3.1-16.6c-0.7-5.3-0.9-9.3-0.5-11.9c0.3-1,0.7-1.9,1.2-2.6
	c0.2-0.3,0.5-0.6,0.8-0.8c1-0.6,2-0.6,2.9,0.1c1.1,0.8,1.3,2,0.5,3.3c-1,2.4-0.7,7.5,0.8,15.4c1.5,7.9,3.9,16.6,7.3,26
	c2.3,6.1,3.2,10.4,2.8,12.8C407.3,362.6,407,363.3,406.6,363.9"/>
<path class="st0" d="M429.9,285.8c-1.5,6.1-5.1,10.7-10.9,13.9c-3.4,1.9-7,2.9-10.6,3.1c-2.6,0-5.5-0.4-8.8-1.2
	c-0.4-0.1-1.6-0.4-3.7-1c-2.1-0.6-4.1-1.5-6-2.8c-3.6-2.7-6.1-5.8-7.6-9.2c-1.5-3.5-1.8-7-0.9-10.7c0.6-2.6,1.9-4.6,3.9-6
	c2-1.4,4.1-1.9,6.3-1.3c2.8,0.7,5.7,2.8,8.8,6.3c3.1,3.5,5.3,7.3,6.6,11.3c0.7,2.2,1.7,3.5,3,3.8c1,0.2,2.5,0,4.5-0.7
	c2.9-0.9,5.1-2.2,6.5-4.1c1.1-1.5,2-3.5,2.7-6.2c1.6-6.5,1.1-13.7-1.4-21.6c-2.2-6.8-5.7-12.7-10.4-17.8c-0.9-0.9-1.3-1.6-1.2-2.1
	c0.1-0.3,0.3-0.6,0.8-0.8c0.2-0.1,0.5-0.1,0.8,0c0.9,0.2,2.3,1.4,4.2,3.5c1.9,2.1,4.1,5.5,6.7,10.2c4.2,7.6,6.6,15.1,7.4,22.3
	C430.9,278.7,430.7,282.4,429.9,285.8 M402.7,290.3c0.1-0.2-0.1-0.9-0.6-2c-0.4-1.1-1.1-2.3-1.8-3.5c-1.4-2.6-2.8-4.8-4.5-6.4
	c-1.6-1.6-3.1-2.6-4.4-2.9c-1.3-0.3-2.1,0.3-2.5,1.8c-0.2,0.9,0.1,2.1,1.1,3.7c1.6,2.7,4.1,5.1,7.5,7.2c2,1.3,3.5,2,4.5,2.2
	C402.4,290.5,402.7,290.5,402.7,290.3"/>
<path class="st1" d="M104.3,104.6c79.4-43.3,183.8-56.1,273.7,18.2c-15.3-29-96.9-62.7-150.1-61.5c-59.7,1.3-113.2,17.1-158.6,55
	c1.3-3.1,1.8-6.9,4.2-9.2c17.4-16.1,34.8-32.2,52.8-47.8c23.2-20.1,50.4-34.7,83.6-44.3c-3.7,6.1-6.3,10.4-8.9,14.7
	c13.4-8.9,25.7-19.7,44.3-15c15.9,4,31.6,8.7,49.8,13.8c-6.1,3.3-9.5,5.1-12.8,6.9c24.7-0.2,47.8,3.1,70,15.1
	c-8.4,1.4-15.6,2.6-22.8,3.8c27.8,5.9,51.7,15.8,69.8,33.7c-14.8-4.2-30.3-8.6-45.7-13c-0.1,0.6-0.2,1.2-0.3,1.7
	c11.6,7.1,25.5,12.5,34.5,21.6c31.2,31.8,47.3,69.8,46.3,112.3c-0.3,13.9-7.2,27.8-11.2,42.1c-12.4-5.7-18.3-13.4-18.9-25.9
	c-1.4-26.2-10-50.5-26.8-71.3c5.9,19.6,12,39.8,18,60c-15.6-4.6-20.8-9.9-26.9-24.3c-6.4-15.3-11.9-31-18.8-46.1
	c-2.9-6.4-8.2-12-13.4-17.1c9.5,23.8,19,47.5,28.8,72.1c-22.9-3.8-44-22.3-52.9-43.4c-5.9-14-13.1-27.5-20.3-41.1
	c-2.2-4.2-6.3-7.5-10.6-12.6c2.4,11.3,4.4,20.7,6.9,32.3c-9.4-5.4-15.7-10.2-23-13c-7.1-2.7-15.5-5.3-22.9-4.4
	c-16.4,2.1-25.6-4.5-32.5-15.8c-2.2-3.6-4.5-7.3-7.8-12.7c-1.5,7.2-2.8,12.8-3.9,18.4c-1.2,5.7-4.4,9.5-11.5,7.6
	c-20.8-5.8-42-6.6-63.7-4.8C117.3,111,111.9,107.3,104.3,104.6"/>
<path class="st0" d="M88.3,101.8c-6.4,4.4-12.3,9.8-17.1,16c-4.9,6.2-8.7,13.2-11.2,20.7c-2.5,7.5-3.5,15.6-2.7,23.5
	c0.8,7.9,3.5,15.8,8.1,22.5c-5-6.4-8.3-14.2-9.6-22.3c-1.3-8.1-0.8-16.6,1.3-24.6c2.1-8,5.7-15.7,10.5-22.5
	c4.7-6.9,10.6-13,17.2-18.2L88.3,101.8z"/>
</svg>
